<?xml version="1.0" standalone="no"?><!-- Generator: Gravit.io --><svg xmlns="http://www.w3.org/2000/svg" xmlns:xlink="http://www.w3.org/1999/xlink" style="isolation:isolate" viewBox="0 0 180 38" width="180" height="38"><defs><clipPath id="_clipPath_7mdKALeTF863ZmFC9N8Kduqkk4vEf9p4"><rect width="180" height="38"/></clipPath></defs><g clip-path="url(#_clipPath_7mdKALeTF863ZmFC9N8Kduqkk4vEf9p4)"><g><path d=" M 103.678 0.475 C 96.261 1.267 90.031 6.408 87.844 13.54 C 85.658 20.672 87.937 28.421 93.636 33.234 C 100.118 38.708 109.479 39.111 116.407 34.216 C 123.336 29.32 126.082 20.362 123.087 12.424 C 120.093 4.487 112.114 -0.425 103.678 0.475 Z  M 103.748 0.891 C 113.712 -0.113 122.618 7.117 123.684 17.075 C 124.75 27.033 117.577 35.984 107.626 37.113 C 101.133 37.849 94.743 35.051 90.88 29.78 C 87.018 24.509 86.275 17.572 88.934 11.603 C 91.593 5.633 97.246 1.546 103.748 0.891 L 103.748 0.891 Z " fill-rule="evenodd" fill="rgb(172,187,22)"/><path d=" M 104.925 1.653 C 97.91 1.978 91.786 6.509 89.422 13.123 C 87.059 19.736 88.925 27.122 94.146 31.819 C 99.367 36.517 106.908 37.596 113.236 34.55 C 117.828 32.271 121.18 28.08 122.395 23.099 C 123.61 18.118 122.565 12.855 119.538 8.717 C 119.261 8.232 118.915 8.024 118.569 7.54 C 115.18 3.567 110.14 1.392 104.925 1.653 L 104.925 1.653 Z  M 105.341 16.959 C 105.41 17.097 105.41 16.889 105.41 17.166 L 105.063 18.482 L 104.717 20.144 C 104.163 19.313 103.748 17.513 103.54 16.405 C 103.263 14.535 103.54 13.565 103.609 11.834 C 103.332 12.526 103.194 13.496 103.124 14.327 C 102.432 13.704 102.362 13.149 101.393 12.803 C 102.362 13.565 102.778 14.465 102.917 16.058 C 102.986 17.997 103.263 18.552 103.609 20.214 C 102.986 19.798 102.639 19.383 102.155 18.829 C 99.731 16.058 98.969 17.928 97.999 14.258 C 97.93 15.643 98.207 15.781 98.553 16.751 C 97.791 16.751 97.03 16.612 96.406 17.028 C 97.999 17.166 99.107 17.374 100.146 18.136 C 102.362 19.729 105.133 24.231 105.271 27.347 C 104.579 27.001 103.886 25.477 100.77 24.3 C 99.731 23.954 98.9 23.815 97.999 23.33 C 97.514 22.984 96.476 22.014 96.476 21.253 C 96.476 22.153 97.307 23.261 97.653 23.538 L 94.398 23.677 C 96.614 23.884 97.653 23.677 99.592 24.438 C 100.908 24.992 102.432 25.962 103.194 26.724 C 103.678 27.278 105.202 28.525 104.925 29.286 L 103.609 32.542 C 103.194 33.65 103.263 33.719 103.124 34.966 C 94.805 33.684 88.902 26.176 89.619 17.79 C 90.162 11.629 94.179 6.321 99.96 4.123 C 105.741 1.926 112.27 3.226 116.768 7.47 L 117.184 7.955 C 121.396 12.334 122.778 18.713 120.756 24.442 C 118.734 30.172 113.653 34.27 107.626 35.035 C 107.141 32.957 107.349 32.126 107.903 30.118 C 108.526 27.971 108.873 27.832 110.258 26.724 C 113.513 24.231 114.898 24.231 118.015 23.123 C 116.837 23.053 115.937 23.261 114.829 23.469 C 115.383 22.499 115.66 22.361 115.798 20.976 C 115.521 23.538 112.543 23.954 109.842 25.616 L 107.834 27.001 C 106.587 24.508 108.388 23.677 110.258 20.976 C 110.743 20.283 111.435 18.898 111.643 17.79 C 111.92 16.058 112.336 15.851 113.374 14.881 C 112.543 15.158 112.266 15.643 111.781 16.058 L 111.574 14.812 C 111.504 16.82 111.435 18.69 109.496 20.422 C 109.912 17.859 109.773 17.651 108.942 15.573 C 109.773 18.136 109.08 20.56 107.418 22.499 L 105.964 24.092 C 105.756 22.915 105.618 21.53 105.618 20.283 C 105.618 19.66 105.825 17.582 106.241 16.959 C 106.379 16.058 107.349 14.465 107.765 13.842 L 109.357 11.903 L 109.912 11.349 C 109.565 11.557 108.665 12.18 108.457 12.457 L 108.457 11.002 L 108.111 9.894 C 108.249 10.656 108.457 11.072 108.18 12.041 C 107.626 13.842 105.479 15.643 105.41 16.751 L 105.41 14.95 C 104.648 15.227 103.886 16.058 104.302 17.166 L 104.717 16.197 L 104.509 17.236 C 105.133 17.097 105.063 17.166 105.341 16.959 Z " fill-rule="evenodd" fill="rgb(41,55,55)"/><path d=" M 111.366 11.695 C 112.128 11.349 112.959 10.518 114.482 10.448 C 113.444 10.864 112.197 11.28 111.574 12.041 C 113.236 13.773 114.829 11.349 115.452 10.864 C 115.868 10.518 116.283 10.448 116.699 10.102 C 115.66 9.756 114.552 9.34 113.305 9.617 C 112.197 9.825 111.227 10.448 111.366 11.695 Z  M 112.197 26.031 C 114.067 25.824 114.275 26.101 115.798 26.378 C 114.275 26.308 113.928 26.031 112.197 26.447 C 113.513 29.009 115.106 26.932 117.53 27.001 C 116.075 24.854 112.543 24.161 112.197 26.031 Z  M 95.09 11.557 L 95.298 11.626 L 95.367 11.695 L 95.783 11.834 C 96.06 11.834 96.199 11.972 96.406 12.041 C 97.584 12.526 98.761 13.842 99.8 11.834 C 99.177 11.418 97.791 11.21 96.96 11.21 C 98.276 11.141 98.692 11.21 99.8 11.487 C 99.523 10.587 98.623 10.241 97.445 10.448 C 96.268 10.587 95.852 11.21 95.09 11.557 Z  M 116.352 22.014 C 116.976 21.46 117.045 20.976 117.945 20.491 C 117.599 21.045 116.837 21.53 116.629 22.361 C 118.846 23.123 118.361 21.737 120.092 19.313 C 118.222 19.106 115.937 20.075 116.352 22.014 Z  M 107.557 8.925 C 107.626 8.371 106.864 7.332 106.656 6.986 C 107.349 7.54 107.418 7.955 107.765 8.44 L 107.972 8.717 C 108.249 7.609 107.834 7.055 107.21 6.432 C 106.656 5.947 105.825 5.462 104.856 5.531 C 106.033 7.332 105.202 9.41 107.557 8.925 Z  M 112.405 18.69 C 113.097 19.313 112.82 18.759 114.413 20.422 C 114.275 20.006 112.82 19.175 112.128 18.898 C 111.435 20.837 113.513 20.976 114.275 21.253 C 114.76 21.391 115.037 21.668 115.383 21.807 C 115.244 18.552 112.474 18.136 112.405 18.69 Z  M 105.133 14.258 C 105.271 13.565 105.133 12.942 105.133 12.318 L 105.202 12.457 C 105.341 12.803 105.41 13.149 105.41 14.119 C 106.656 13.357 105.825 10.933 104.163 10.033 C 104.371 11.903 102.986 13.842 105.133 14.258 Z  M 93.22 14.673 C 94.259 15.227 94.329 15.296 95.09 15.92 C 95.852 16.612 96.822 16.405 97.237 15.504 L 95.298 14.673 C 96.129 14.742 96.614 15.019 97.307 15.227 C 97.03 13.911 95.437 13.773 94.259 14.119 L 93.22 14.673 Z  M 92.251 20.56 C 93.013 21.183 93.082 21.183 93.775 22.153 C 94.19 22.846 94.952 23.192 95.852 22.43 C 95.644 21.945 94.675 21.253 94.121 21.045 C 95.021 21.253 95.437 21.876 96.06 22.153 C 95.922 20.422 93.913 20.075 92.251 20.56 Z  M 100.977 29.91 C 101.67 27.901 103.332 28.663 103.124 26.793 C 102.432 27.001 101.67 27.694 101.462 28.248 C 101.808 27.278 102.57 26.862 102.917 26.516 C 101.047 24.854 100.077 28.732 100.977 29.91 Z  M 102.224 24.577 C 102.432 23.815 102.432 23.607 102.432 22.707 C 102.639 23.261 102.57 24.023 102.432 24.646 C 103.748 24.508 103.886 23.607 103.332 22.499 C 102.986 21.668 102.224 21.183 101.601 20.768 C 101.67 21.599 101.878 21.807 101.67 22.776 C 101.462 23.746 101.462 24.3 102.224 24.577 Z  M 101.808 17.928 L 101.67 15.504 L 102.085 17.859 C 103.194 17.166 102.57 14.95 100.908 14.05 C 101.047 15.781 99.731 17.72 101.808 17.928 Z  M 114.413 15.227 L 116.56 15.089 C 115.798 15.227 114.967 15.158 114.413 15.573 C 115.037 17.374 116.56 15.643 117.945 15.573 C 117.807 15.227 117.945 15.435 117.599 15.227 L 117.253 14.95 C 116.283 14.327 114.829 14.188 114.413 15.227 Z  M 102.639 11.972 C 102.639 11.487 102.362 11.141 102.224 10.656 L 102.57 11.072 L 102.847 11.695 C 102.847 11.695 103.055 11.626 103.124 11.21 C 103.194 10.31 101.947 9.202 100.631 9.063 L 101.185 11.002 C 101.324 11.834 101.67 12.041 102.639 11.972 Z  M 95.922 27.347 C 96.406 26.793 96.476 26.516 97.03 26.17 C 97.584 25.754 97.999 25.685 97.93 24.785 C 97.445 24.715 97.307 24.992 96.891 25.2 C 97.168 24.785 97.376 24.715 97.653 24.438 C 96.06 23.123 95.437 25.824 95.922 27.347 Z  M 96.268 20.144 C 96.891 19.867 97.03 19.59 97.791 19.452 C 98.553 19.244 98.969 19.244 98.969 18.344 C 98.207 18.413 98.138 18.552 97.514 18.759 C 98.138 18.344 98.207 18.413 98.9 18.136 C 98.553 16.82 96.614 17.443 96.268 20.144 Z  M 109.08 25.062 L 109.912 23.538 C 109.704 24.092 109.496 24.438 109.357 25.2 C 111.02 25.2 110.466 24.3 111.089 22.222 C 109.981 22.499 108.596 23.607 109.08 25.062 Z  M 106.864 21.322 L 107.418 19.66 L 107.072 21.391 C 108.734 21.599 108.111 19.729 108.388 18.344 C 107.557 18.621 105.756 20.422 106.864 21.322 Z  M 109.912 27.624 L 110.05 27.694 L 110.258 27.763 L 111.227 28.248 C 110.673 28.109 110.466 27.971 109.704 27.901 C 109.842 29.633 111.089 29.009 112.613 29.425 C 112.474 28.732 112.058 28.248 111.712 27.901 C 111.366 27.555 110.466 27.001 109.912 27.624 Z  M 92.736 17.928 C 93.497 17.859 93.775 17.79 94.467 18.067 C 95.16 18.275 95.575 18.275 95.783 17.72 C 95.298 17.374 94.952 17.513 94.398 17.374 L 95.852 17.513 C 95.852 15.435 93.29 16.82 92.736 17.928 Z  M 105.133 9.825 C 105.271 9.479 104.925 9.063 104.717 8.578 C 104.925 8.856 105.202 9.34 105.479 9.548 C 105.825 8.994 105.271 8.301 104.925 8.094 C 104.509 7.747 104.025 7.609 103.401 7.54 C 104.094 9.133 104.025 10.033 105.133 9.825 Z  M 114.136 13.149 C 114.69 13.011 114.898 12.803 115.452 12.803 C 115.037 12.942 114.482 13.08 114.205 13.357 C 114.552 13.842 115.037 14.119 115.66 13.565 L 117.045 12.734 C 116.283 12.249 114.482 11.834 114.136 13.149 Z  M 99.869 27.555 C 99.938 27.001 99.938 26.724 100.146 26.239 C 100.839 24.992 100.285 24.508 99.869 25.408 L 99.661 26.101 C 99.661 25.477 99.869 25.339 100.008 24.854 C 98.346 24.854 98.83 26.724 99.869 27.555 Z  M 106.449 16.82 L 107.418 16.82 L 106.518 17.236 C 107.003 18.344 107.765 17.582 108.873 17.028 L 109.15 16.82 C 108.734 16.612 107.972 16.058 107.003 16.405 L 106.656 16.612 L 106.656 16.682 L 106.587 16.751 L 106.449 16.82 Z  M 112.751 17.513 C 113.167 17.374 113.513 17.236 113.998 17.236 C 113.513 17.305 113.097 17.374 112.751 17.72 C 113.374 18.759 114.136 17.79 114.552 17.513 L 115.175 17.236 C 114.482 16.82 113.097 16.335 112.751 17.513 Z  M 105.341 16.959 L 105.618 16.682 L 105.618 14.881 C 104.856 15.158 104.094 15.989 104.509 17.028 L 104.925 16.058 L 104.717 17.166 C 105.133 17.097 105.063 17.166 105.341 16.959 Z  M 111.227 13.842 L 110.95 12.803 L 111.089 13.011 L 111.366 13.496 L 111.574 13.704 C 112.405 12.665 111.089 11.972 109.842 11.903 L 109.981 12.18 C 110.881 13.565 110.327 13.842 111.227 13.842 Z  M 110.396 10.102 L 110.535 10.033 C 111.227 9.825 111.089 8.509 110.258 7.817 C 109.773 9.063 109.496 9.825 110.396 10.102 Z  M 99.938 21.391 C 100.285 21.045 100.146 20.906 100.7 20.283 C 100.839 20.075 101.047 20.006 101.047 19.66 C 100.908 19.175 100.839 19.452 100.492 19.66 C 100.7 19.313 100.908 19.175 100.423 19.106 C 100.146 19.106 99.938 19.313 99.8 19.521 C 99.523 20.214 99.8 20.837 99.938 21.391 Z  M 106.449 13.011 L 106.795 12.803 L 107.003 12.457 L 106.795 13.149 C 108.111 13.427 107.626 11.418 107.072 11.072 C 106.587 12.457 106.241 12.18 106.449 13.011 Z  M 110.396 17.859 L 110.812 17.374 L 110.604 17.928 C 111.435 17.72 111.643 16.612 111.158 15.92 L 111.089 15.989 C 111.02 16.335 111.089 15.989 111.02 16.128 C 110.466 16.751 109.634 17.236 110.396 17.859 Z  M 110.396 21.391 L 111.227 21.183 C 110.812 21.322 110.812 21.253 110.466 21.599 C 110.743 21.945 111.02 22.084 111.574 21.737 L 112.405 21.183 L 112.336 20.976 L 111.989 20.837 L 111.366 20.768 C 110.812 20.768 110.604 20.976 110.396 21.391 Z  M 116.352 24.231 L 117.045 24.092 C 116.768 24.231 116.629 24.161 116.422 24.508 C 116.907 25.062 117.114 24.854 118.153 24.161 L 118.361 23.954 C 117.668 23.746 116.768 23.261 116.352 24.231 Z  M 99.731 23.746 L 100.077 23.123 L 99.938 23.884 C 101.047 23.746 100.631 23.053 100.839 22.014 C 100.215 22.153 99.177 22.984 99.731 23.746 Z  M 98.553 23.053 C 98.761 22.776 98.692 22.776 98.692 22.43 L 98.761 22.638 L 98.83 22.776 L 98.969 22.984 C 99.177 22.084 98.9 21.391 98.138 20.976 C 98.207 22.014 97.584 22.846 98.553 23.053 Z  M 112.682 23.469 L 112.82 23.261 L 112.959 23.607 C 114.275 23.538 113.305 22.014 112.89 21.737 C 112.82 22.499 112.336 23.053 112.682 23.469 Z  M 98.553 14.812 L 98.83 14.881 L 99.107 14.881 C 98.623 14.95 98.692 14.95 98.553 15.227 C 98.9 15.435 99.107 15.573 99.523 15.296 L 100.423 14.812 C 99.869 14.465 98.969 14.119 98.553 14.812 Z  M 110.743 15.296 C 111.02 14.881 110.673 15.227 110.812 15.019 L 111.02 14.881 C 110.812 14.327 110.396 14.188 109.773 14.119 C 110.258 15.227 110.119 15.296 110.743 15.296 Z  M 108.734 15.296 L 108.526 14.604 L 108.942 15.089 C 109.011 14.396 108.596 14.119 107.903 14.05 C 108.111 14.812 107.972 15.227 108.734 15.296 Z  M 0 17.582 L 0 14.119 L 2.701 14.119 L 2.701 13.496 C 2.701 9.825 4.432 8.024 7.965 8.024 C 9.28 8.024 10.25 8.163 10.873 8.578 C 11.566 8.925 11.912 9.479 11.912 10.171 C 11.912 10.795 11.705 11.418 11.289 12.111 C 10.596 11.764 9.765 11.557 8.865 11.557 C 8.103 11.557 7.549 11.695 7.203 12.041 C 6.856 12.388 6.649 12.942 6.649 13.634 L 6.649 14.188 L 10.873 14.119 L 10.873 17.582 L 6.995 17.513 L 6.995 28.525 L 2.701 28.525 L 2.701 17.513 L 0 17.582 Z  M 24.309 28.525 L 21.747 28.525 C 20.362 28.525 19.531 27.763 19.392 26.239 C 18.492 27.971 16.968 28.802 14.821 28.802 C 13.505 28.802 12.466 28.455 11.566 27.694 C 10.63 26.938 10.114 25.778 10.181 24.577 C 10.181 21.322 12.536 19.66 17.314 19.66 L 19.323 19.66 C 19.323 18.759 19.115 18.136 18.699 17.72 C 18.284 17.374 17.522 17.166 16.622 17.166 C 14.821 17.166 13.297 17.582 11.982 18.413 C 11.566 17.79 11.289 17.097 11.289 16.335 C 11.289 15.573 11.566 15.089 12.051 14.812 C 13.228 14.119 14.89 13.773 16.968 13.773 C 19.046 13.773 20.639 14.258 21.816 15.227 C 22.993 16.266 23.548 17.651 23.548 19.521 L 23.548 25.131 C 23.617 26.724 23.825 27.763 24.309 28.525 Z  M 15.791 25.547 C 17.176 25.547 18.422 24.992 19.392 23.677 L 19.392 22.153 L 17.384 22.153 C 15.237 22.153 14.129 22.776 14.129 24.092 C 14.129 24.508 14.267 24.854 14.613 25.131 C 14.96 25.408 15.306 25.547 15.791 25.547 Z  M 30.127 16.543 C 30.473 15.851 31.097 15.227 31.858 14.673 C 32.62 14.119 33.521 13.842 34.421 13.842 C 35.183 13.842 35.806 14.05 36.36 14.465 C 36.914 14.95 37.122 15.573 37.122 16.405 C 37.122 17.305 36.914 18.136 36.568 19.036 C 35.772 18.323 34.727 17.95 33.659 17.997 C 32.205 17.997 31.027 18.552 30.058 19.66 L 30.058 28.525 L 25.764 28.525 L 25.764 14.119 L 27.495 14.119 C 28.396 14.119 29.019 14.327 29.434 14.742 C 29.85 15.089 30.058 15.781 30.127 16.543 Z  M 55.96 26.031 L 55.96 19.383 C 55.96 18.067 55.337 17.374 54.229 17.374 C 53.605 17.374 52.982 17.582 52.359 17.997 C 51.805 18.413 51.389 18.898 51.112 19.452 L 51.112 28.525 L 46.887 28.525 L 46.887 19.383 C 46.887 18.067 46.264 17.374 45.156 17.374 C 44.463 17.374 43.909 17.582 43.286 17.997 C 42.732 18.413 42.316 18.898 41.97 19.452 L 41.97 28.525 L 37.745 28.525 L 37.745 14.119 L 39.407 14.119 C 40.308 14.119 40.931 14.327 41.347 14.673 C 41.693 15.089 41.901 15.643 41.97 16.405 C 43.147 14.742 44.74 13.842 46.887 13.842 C 48.896 13.842 50.142 14.812 50.766 16.682 C 51.826 14.903 53.751 13.821 55.821 13.842 C 57.207 13.842 58.315 14.258 59.077 15.158 C 59.838 16.058 60.185 17.374 60.185 18.967 L 60.185 28.525 L 58.592 28.525 C 56.791 28.525 55.96 27.694 55.96 26.031 Z " fill-rule="evenodd" fill="rgb(172,187,22)"/><path d=" M 63.578 26.793 C 62.262 25.477 61.57 23.677 61.57 21.253 C 61.57 18.967 62.262 17.097 63.578 15.781 C 64.894 14.396 66.764 13.704 69.119 13.704 C 70.712 13.704 72.028 13.911 73.067 14.465 C 73.551 14.673 73.828 14.881 73.967 15.089 C 74.105 15.366 74.175 15.781 74.175 16.266 C 74.175 17.028 73.967 17.72 73.621 18.482 C 72.374 17.72 71.058 17.305 69.534 17.305 C 67.11 17.305 65.933 18.552 65.933 21.253 C 65.933 22.499 66.21 23.469 66.833 24.161 C 67.457 24.854 68.426 25.2 69.673 25.2 C 71.058 25.2 72.513 24.785 73.828 23.884 C 74.244 24.646 74.452 25.408 74.452 26.17 C 74.452 26.655 74.382 27.001 74.175 27.278 C 74.036 27.486 73.759 27.763 73.344 27.971 C 72.305 28.525 70.989 28.802 69.257 28.802 C 66.833 28.871 64.894 28.178 63.578 26.793 Z  M 79.923 16.543 C 80.339 15.851 80.893 15.227 81.654 14.673 C 82.416 14.119 83.317 13.842 84.217 13.842 C 84.979 13.842 85.671 14.05 86.225 14.465 C 86.71 14.95 86.987 15.573 86.987 16.405 C 86.987 17.305 86.71 18.136 86.364 19.036 C 85.568 18.323 84.523 17.95 83.455 17.997 C 82.001 17.997 80.823 18.552 79.923 19.66 L 79.923 28.525 L 75.56 28.525 L 75.56 14.119 L 77.291 14.119 C 78.192 14.119 78.815 14.327 79.23 14.742 C 79.646 15.089 79.854 15.781 79.923 16.543 Z  M 136.576 22.014 L 134.775 28.109 L 128.888 28.109 L 125.01 13.704 L 129.788 13.704 L 131.174 19.452 C 131.728 21.391 131.935 23.261 132.005 24.992 L 132.143 24.992 C 132.282 23.261 132.697 21.322 133.321 19.244 L 135.052 13.704 L 139.692 13.704 L 141.424 19.244 C 141.978 21.322 142.324 23.33 142.462 24.992 L 142.532 24.992 C 142.532 23.261 142.809 21.391 143.224 19.383 L 144.956 13.704 L 149.735 13.704 L 145.441 28.109 L 140.038 28.109 L 138.307 22.014 L 137.476 17.236 L 137.407 17.236 C 137.13 19.244 136.922 20.837 136.576 22.014 Z  M 159.569 22.361 L 159.569 18.898 C 158.738 17.582 157.699 16.959 156.66 16.959 C 155.76 16.959 155.137 17.305 154.583 17.997 C 154.028 18.69 153.751 19.66 153.751 20.906 C 153.751 22.153 154.028 23.123 154.513 23.815 C 154.998 24.508 155.76 24.854 156.66 24.854 C 157.284 24.854 157.838 24.646 158.392 24.092 C 158.876 23.607 159.292 23.053 159.569 22.361 Z  M 163.794 10.448 L 163.794 24.785 C 163.794 26.239 164.002 27.417 164.417 28.109 L 161.785 28.109 C 160.4 28.109 159.569 27.347 159.431 25.824 C 158.679 27.47 157.015 28.507 155.206 28.455 C 153.474 28.455 152.02 27.763 150.981 26.447 C 149.942 25.131 149.388 23.261 149.388 20.906 C 149.388 18.552 149.942 16.612 150.981 15.296 C 152.089 14.05 153.544 13.357 155.344 13.357 C 157.002 13.325 158.553 14.167 159.431 15.573 L 159.431 7.955 L 161.093 7.955 C 162.893 7.955 163.794 8.786 163.794 10.448 Z  M 180 13.704 L 180 26.447 C 180 28.871 179.377 30.81 178.061 32.126 C 176.676 33.442 174.875 34.065 172.451 34.065 C 170.304 34.065 168.85 33.857 168.018 33.303 C 167.326 32.749 166.91 32.126 166.91 31.295 C 166.91 30.256 167.118 29.494 167.603 28.94 C 168.711 29.979 170.165 30.395 171.897 30.395 C 173.213 30.395 174.113 30.187 174.806 29.633 C 175.429 29.148 175.706 28.248 175.706 27.001 L 175.706 25.616 C 174.679 27.176 172.934 28.113 171.066 28.109 C 169.404 28.109 168.157 27.624 167.257 26.585 C 166.356 25.547 165.941 24.023 165.941 22.014 L 165.941 13.704 L 167.672 13.704 C 169.404 13.704 170.304 14.535 170.304 16.197 L 170.304 21.599 C 170.304 23.469 170.997 24.438 172.451 24.438 C 173.975 24.438 175.013 23.815 175.775 22.499 L 175.775 13.704 L 180 13.704 Z " fill-rule="evenodd" fill="rgb(41,55,55)"/></g></g></svg>